<mxfile host="app.diagrams.net" modified="2023-08-14T19:04:54.149Z" agent="Mozilla/5.0 (Windows NT 10.0; Win64; x64) AppleWebKit/537.36 (KHTML, like Gecko) Chrome/115.0.0.0 Safari/537.36" etag="lIU77mg83U_nWX6SqOfL" version="21.6.8" type="github">
  <diagram name="Página-1" id="VFkdayIZ1hyOYw_i9sZS">
    <mxGraphModel dx="1434" dy="790" grid="1" gridSize="10" guides="1" tooltips="1" connect="1" arrows="1" fold="1" page="1" pageScale="1" pageWidth="827" pageHeight="1169" math="0" shadow="0">
      <root>
        <mxCell id="0" />
        <mxCell id="1" parent="0" />
        <mxCell id="-IC7cZ6QEsMW8J01W079-21" style="edgeStyle=orthogonalEdgeStyle;rounded=0;orthogonalLoop=1;jettySize=auto;html=1;exitX=1;exitY=0.5;exitDx=0;exitDy=0;entryX=0;entryY=0.25;entryDx=0;entryDy=0;" edge="1" parent="1" source="-IC7cZ6QEsMW8J01W079-2" target="-IC7cZ6QEsMW8J01W079-16">
          <mxGeometry relative="1" as="geometry" />
        </mxCell>
        <mxCell id="-IC7cZ6QEsMW8J01W079-30" style="edgeStyle=orthogonalEdgeStyle;rounded=0;orthogonalLoop=1;jettySize=auto;html=1;exitX=1;exitY=1;exitDx=0;exitDy=0;" edge="1" parent="1" source="-IC7cZ6QEsMW8J01W079-2" target="-IC7cZ6QEsMW8J01W079-15">
          <mxGeometry relative="1" as="geometry" />
        </mxCell>
        <mxCell id="-IC7cZ6QEsMW8J01W079-2" value="Sistema Venda de Paçoca" style="ellipse;whiteSpace=wrap;html=1;aspect=fixed;" vertex="1" parent="1">
          <mxGeometry x="30" y="40" width="90" height="90" as="geometry" />
        </mxCell>
        <mxCell id="-IC7cZ6QEsMW8J01W079-26" style="edgeStyle=orthogonalEdgeStyle;rounded=0;orthogonalLoop=1;jettySize=auto;html=1;exitX=0.5;exitY=1;exitDx=0;exitDy=0;entryX=1;entryY=0.5;entryDx=0;entryDy=0;" edge="1" parent="1" source="-IC7cZ6QEsMW8J01W079-3" target="-IC7cZ6QEsMW8J01W079-15">
          <mxGeometry relative="1" as="geometry" />
        </mxCell>
        <mxCell id="-IC7cZ6QEsMW8J01W079-32" style="edgeStyle=orthogonalEdgeStyle;rounded=0;orthogonalLoop=1;jettySize=auto;html=1;exitX=0;exitY=0.5;exitDx=0;exitDy=0;" edge="1" parent="1" source="-IC7cZ6QEsMW8J01W079-3" target="-IC7cZ6QEsMW8J01W079-16">
          <mxGeometry relative="1" as="geometry" />
        </mxCell>
        <mxCell id="-IC7cZ6QEsMW8J01W079-3" value="Fornecedores" style="rounded=0;whiteSpace=wrap;html=1;" vertex="1" parent="1">
          <mxGeometry x="707" y="70" width="120" height="60" as="geometry" />
        </mxCell>
        <mxCell id="-IC7cZ6QEsMW8J01W079-12" value="" style="edgeStyle=orthogonalEdgeStyle;rounded=0;orthogonalLoop=1;jettySize=auto;html=1;" edge="1" parent="1" source="-IC7cZ6QEsMW8J01W079-9" target="-IC7cZ6QEsMW8J01W079-2">
          <mxGeometry relative="1" as="geometry" />
        </mxCell>
        <mxCell id="-IC7cZ6QEsMW8J01W079-9" value="Clientes" style="rounded=0;whiteSpace=wrap;html=1;" vertex="1" parent="1">
          <mxGeometry x="15" y="230" width="120" height="60" as="geometry" />
        </mxCell>
        <mxCell id="-IC7cZ6QEsMW8J01W079-18" style="edgeStyle=orthogonalEdgeStyle;rounded=0;orthogonalLoop=1;jettySize=auto;html=1;exitX=0.5;exitY=1;exitDx=0;exitDy=0;entryX=0.5;entryY=1;entryDx=0;entryDy=0;" edge="1" parent="1" source="-IC7cZ6QEsMW8J01W079-15" target="-IC7cZ6QEsMW8J01W079-9">
          <mxGeometry relative="1" as="geometry" />
        </mxCell>
        <mxCell id="-IC7cZ6QEsMW8J01W079-15" value="Entregadores" style="rounded=0;whiteSpace=wrap;html=1;" vertex="1" parent="1">
          <mxGeometry x="414" y="220" width="120" height="60" as="geometry" />
        </mxCell>
        <mxCell id="-IC7cZ6QEsMW8J01W079-22" style="edgeStyle=orthogonalEdgeStyle;rounded=0;orthogonalLoop=1;jettySize=auto;html=1;exitX=1;exitY=0.25;exitDx=0;exitDy=0;entryX=0;entryY=0.25;entryDx=0;entryDy=0;" edge="1" parent="1" source="-IC7cZ6QEsMW8J01W079-16" target="-IC7cZ6QEsMW8J01W079-3">
          <mxGeometry relative="1" as="geometry" />
        </mxCell>
        <mxCell id="-IC7cZ6QEsMW8J01W079-34" style="edgeStyle=orthogonalEdgeStyle;rounded=0;orthogonalLoop=1;jettySize=auto;html=1;exitX=0;exitY=0.5;exitDx=0;exitDy=0;entryX=0.978;entryY=0.733;entryDx=0;entryDy=0;entryPerimeter=0;" edge="1" parent="1" source="-IC7cZ6QEsMW8J01W079-16" target="-IC7cZ6QEsMW8J01W079-2">
          <mxGeometry relative="1" as="geometry" />
        </mxCell>
        <mxCell id="-IC7cZ6QEsMW8J01W079-16" value="Produtos" style="rounded=0;whiteSpace=wrap;html=1;" vertex="1" parent="1">
          <mxGeometry x="360" y="72.5" width="101" height="35" as="geometry" />
        </mxCell>
        <mxCell id="-IC7cZ6QEsMW8J01W079-19" value="Busca do produto" style="text;html=1;align=center;verticalAlign=middle;resizable=0;points=[];autosize=1;strokeColor=none;fillColor=none;" vertex="1" parent="1">
          <mxGeometry x="170" y="50" width="120" height="30" as="geometry" />
        </mxCell>
        <mxCell id="-IC7cZ6QEsMW8J01W079-23" value="Solicitação do produto" style="text;html=1;align=center;verticalAlign=middle;resizable=0;points=[];autosize=1;strokeColor=none;fillColor=none;" vertex="1" parent="1">
          <mxGeometry x="500" y="50" width="140" height="30" as="geometry" />
        </mxCell>
        <mxCell id="-IC7cZ6QEsMW8J01W079-27" value="Encaminhando produto" style="text;html=1;align=center;verticalAlign=middle;resizable=0;points=[];autosize=1;strokeColor=none;fillColor=none;" vertex="1" parent="1">
          <mxGeometry x="610" y="220" width="150" height="30" as="geometry" />
        </mxCell>
        <mxCell id="-IC7cZ6QEsMW8J01W079-28" value="Entrega do produto" style="text;html=1;align=center;verticalAlign=middle;resizable=0;points=[];autosize=1;strokeColor=none;fillColor=none;" vertex="1" parent="1">
          <mxGeometry x="190" y="290" width="130" height="30" as="geometry" />
        </mxCell>
        <mxCell id="-IC7cZ6QEsMW8J01W079-29" value="Solicitação do cliente" style="text;html=1;align=center;verticalAlign=middle;resizable=0;points=[];autosize=1;strokeColor=none;fillColor=none;" vertex="1" parent="1">
          <mxGeometry x="70" y="180" width="140" height="30" as="geometry" />
        </mxCell>
        <mxCell id="-IC7cZ6QEsMW8J01W079-31" value="Recebe o endereço" style="text;html=1;align=center;verticalAlign=middle;resizable=0;points=[];autosize=1;strokeColor=none;fillColor=none;" vertex="1" parent="1">
          <mxGeometry x="250" y="120" width="130" height="30" as="geometry" />
        </mxCell>
        <mxCell id="-IC7cZ6QEsMW8J01W079-33" value="Confirmação do produto solicitado" style="text;html=1;align=center;verticalAlign=middle;resizable=0;points=[];autosize=1;strokeColor=none;fillColor=none;" vertex="1" parent="1">
          <mxGeometry x="480" y="100" width="210" height="30" as="geometry" />
        </mxCell>
        <mxCell id="-IC7cZ6QEsMW8J01W079-35" value="Liberação do produto" style="text;html=1;align=center;verticalAlign=middle;resizable=0;points=[];autosize=1;strokeColor=none;fillColor=none;" vertex="1" parent="1">
          <mxGeometry x="110" y="80" width="140" height="30" as="geometry" />
        </mxCell>
      </root>
    </mxGraphModel>
  </diagram>
</mxfile>
